<?xml version="1.0" standalone="no"?>
<!DOCTYPE svg PUBLIC "-//W3C//DTD SVG 20010904//EN"
 "http://www.w3.org/TR/2001/REC-SVG-20010904/DTD/svg10.dtd">
<svg version="1.0" xmlns="http://www.w3.org/2000/svg"
 width="1080.000000pt" height="1080.000000pt" viewBox="0 0 1080.000000 1080.000000"
 preserveAspectRatio="xMidYMid meet">
<metadata>
Created by potrace 1.16, written by Peter Selinger 2001-2019
</metadata>
<g transform="translate(0.000000,1080.000000) scale(0.100000,-0.100000)"
fill="#000000" stroke="none">
<path d="M0 5400 l0 -5400 5400 0 5400 0 0 5400 0 5400 -5400 0 -5400 0 0
-5400z m3840 4955 c0 -29 49 -136 81 -176 46 -58 130 -117 189 -132 76 -20 79
-31 13 -51 -79 -25 -153 -76 -200 -139 -40 -52 -83 -142 -83 -171 0 -9 -4 -16
-9 -16 -10 0 -21 24 -21 47 0 24 -59 135 -88 167 -34 36 -124 94 -159 102 -16
4 -41 13 -57 21 -22 12 -26 17 -15 24 8 5 24 9 35 9 31 0 133 55 172 93 45 44
98 132 112 190 12 45 30 64 30 32z m2930 -483 c118 -22 155 -34 306 -97 98
-41 230 -121 296 -177 14 -13 47 -40 73 -62 49 -40 135 -151 135 -173 0 -9 15
-13 48 -13 74 -1 232 -26 287 -45 132 -46 266 -140 333 -234 91 -125 152 -322
152 -486 0 -106 -51 -235 -119 -299 -38 -37 -39 -50 -2 -77 59 -43 149 -213
181 -339 63 -250 20 -436 -139 -597 -247 -252 -742 -357 -1181 -252 -94 23
-340 103 -382 125 -35 18 -65 18 -119 -1 -23 -9 -102 -29 -173 -46 -160 -37
-314 -47 -441 -29 -148 21 -133 28 -179 -76 -23 -51 -46 -105 -53 -120 -16
-40 -151 -349 -176 -404 -54 -119 -77 -186 -77 -221 0 -28 -6 -42 -24 -56 -25
-20 -50 -62 -71 -122 -7 -20 -23 -58 -35 -86 -47 -103 -59 -133 -100 -230 -24
-55 -53 -122 -65 -150 -13 -27 -35 -79 -50 -115 -14 -36 -32 -78 -40 -95 -49
-111 -165 -376 -165 -379 0 -3 -16 -40 -36 -82 -32 -70 -34 -79 -20 -90 15
-10 16 -72 14 -620 l-3 -609 -75 4 c-41 2 -93 6 -115 10 l-40 7 -3 587 c-2
502 -4 587 -16 587 -8 0 -17 4 -20 8 -4 6 98 258 153 377 60 130 101 236 101
260 0 17 -10 79 -21 138 -20 96 -25 110 -48 122 -19 9 -42 44 -75 111 -42 87
-47 103 -41 141 6 44 80 162 187 300 26 34 48 66 48 70 0 4 -21 22 -47 38 -34
22 -56 47 -80 91 -33 60 -33 61 -18 105 18 50 35 71 90 109 41 28 41 28 130
18 50 -6 94 -15 99 -19 6 -5 4 -18 -4 -34 -11 -21 -11 -27 3 -43 22 -24 35
-90 26 -132 -5 -22 -21 -46 -45 -66 -20 -17 -34 -36 -31 -41 3 -5 26 -7 51 -4
37 5 66 21 147 80 64 47 106 85 115 105 89 197 254 593 252 604 -2 9 -39 34
-84 56 -44 23 -103 58 -132 79 -58 42 -79 45 -108 19 -40 -37 -351 -182 -390
-182 -8 0 -22 -4 -32 -9 -9 -5 -60 -19 -112 -32 -78 -19 -123 -23 -255 -24
l-160 0 -95 39 c-85 35 -97 38 -125 26 -108 -43 -200 -59 -346 -60 -80 0 -159
4 -175 9 -16 5 -56 14 -89 21 -83 17 -178 51 -276 99 -142 69 -179 94 -253
164 -60 58 -74 67 -96 62 -14 -4 -68 -7 -120 -6 -84 0 -105 4 -178 33 -117 46
-193 119 -251 241 -41 86 -42 92 -43 191 -1 116 11 164 74 291 113 227 299
379 558 457 82 24 259 34 320 18 88 -23 95 -23 135 4 21 15 50 29 64 32 14 3
36 10 49 15 13 5 64 9 115 9 83 -1 113 -5 197 -25 22 -6 28 -2 44 35 77 176
190 308 352 412 55 35 110 69 124 75 155 69 173 73 330 80 l145 6 65 62 c116
111 232 175 430 237 113 35 210 44 304 30 l70 -11 90 66 c151 110 325 191 481
222 78 16 354 6 475 -17z m-3304 -313 c22 -20 60 -45 86 -55 27 -10 47 -23 45
-28 -2 -5 -20 -14 -40 -20 -59 -17 -131 -86 -158 -151 -12 -30 -26 -55 -30
-55 -5 0 -14 19 -21 43 -16 57 -111 152 -162 161 -53 10 -53 24 1 47 26 11 62
31 79 44 33 25 84 103 84 127 0 8 5 19 12 26 10 10 18 0 39 -45 14 -32 44 -74
65 -94z m556 -284 c17 -28 42 -52 68 -65 39 -20 41 -22 23 -35 -10 -8 -23 -15
-29 -15 -17 0 -62 -52 -78 -90 l-15 -35 -15 35 c-22 50 -46 75 -89 95 l-39 18
44 27 c42 27 88 79 88 100 0 21 16 8 42 -35z m416 -4070 c135 -156 139 -162
121 -180 -12 -11 -55 7 -286 123 -149 75 -270 139 -267 143 2 4 31 10 63 14
l60 7 156 -112 c98 -70 162 -110 171 -106 24 9 12 48 -19 66 -15 8 -55 41 -89
73 -34 31 -69 57 -80 57 -12 0 -18 7 -18 21 0 18 5 20 42 17 41 -3 47 -8 146
-123z m1214 87 c4 -4 -106 -65 -243 -135 -138 -71 -253 -126 -255 -124 -4 4
67 56 336 246 41 29 50 31 100 26 30 -3 58 -9 62 -13z m-1659 -71 c312 -150
361 -174 351 -178 -10 -3 -220 70 -289 101 -16 8 -76 31 -133 52 -56 21 -101
42 -99 48 3 9 34 22 60 25 4 1 54 -21 110 -48z m1844 26 c12 -12 0 -19 -84
-49 -54 -19 -172 -63 -263 -97 -158 -59 -227 -76 -141 -36 23 11 123 61 224
111 189 95 229 106 264 71z m-1965 -109 c89 -33 190 -71 223 -83 172 -63 473
-179 498 -192 l27 -14 0 -594 c0 -403 -3 -596 -10 -600 -17 -10 -192 30 -355
82 -179 58 -444 194 -532 276 l-23 20 0 584 c0 321 2 583 4 583 2 0 78 -28
168 -62z m2086 -660 l-3 -723 -80 -27 c-185 -62 -435 -104 -682 -115 l-143 -6
0 625 0 626 93 35 c50 20 164 63 252 96 88 34 248 94 355 135 107 41 198 75
203 75 4 1 6 -324 5 -721z m-2438 444 c0 -5 -16 -27 -36 -50 -99 -116 -159
-327 -133 -467 14 -78 56 -205 73 -224 8 -9 23 -34 34 -56 11 -22 41 -62 66
-89 25 -28 46 -52 46 -55 0 -12 167 -142 235 -184 120 -73 294 -150 440 -195
188 -58 314 -81 548 -102 214 -18 240 -18 440 -4 255 18 514 67 667 128 104
42 221 91 263 113 27 13 51 22 53 20 8 -7 -140 -102 -211 -136 -38 -18 -82
-39 -97 -47 -43 -23 -226 -85 -329 -110 -205 -51 -470 -84 -667 -84 -217 1
-497 37 -692 89 -155 41 -386 127 -420 156 -8 7 -34 22 -58 34 -74 38 -204
132 -275 200 -89 85 -167 199 -208 303 -30 77 -33 91 -33 203 0 139 21 222 79
315 19 30 43 71 54 90 17 32 142 160 155 160 3 0 6 -4 6 -8z m-405 -489 c-18
-212 65 -425 234 -605 225 -239 537 -399 964 -493 290 -64 775 -76 1045 -25
23 4 45 4 48 -1 3 -5 2 -9 -3 -9 -4 0 -42 -7 -83 -16 -176 -37 -264 -46 -492
-51 -256 -6 -359 2 -568 43 -589 115 -1040 431 -1155 810 -26 86 -15 424 13
424 2 0 1 -35 -3 -77z"/>
<path d="M5705 7078 c-32 -68 -31 -74 6 -87 57 -20 68 -15 93 42 12 28 21 57
19 63 -4 10 -60 34 -82 34 -6 0 -23 -24 -36 -52z"/>
<path d="M5636 6914 c-32 -71 -33 -88 -1 -102 49 -22 62 -16 94 49 17 34 28
66 25 71 -7 11 -67 38 -83 38 -5 0 -21 -25 -35 -56z"/>
<path d="M5582 6777 c-19 -24 -52 -97 -52 -115 0 -13 12 -22 41 -31 50 -15 58
-10 88 64 20 48 21 59 10 70 -20 19 -75 26 -87 12z"/>
<path d="M5501 6597 c-16 -20 -41 -83 -41 -105 0 -20 54 -56 74 -49 19 8 67
117 61 137 -3 10 -20 20 -37 24 -42 8 -44 8 -57 -7z"/>
<path d="M5428 6406 c-22 -16 -61 -103 -53 -116 10 -17 74 -23 91 -9 24 20 56
88 52 112 -2 17 -11 23 -38 24 -19 2 -43 -3 -52 -11z"/>
<path d="M5092 6166 c-14 -19 -52 -132 -52 -156 0 -21 3 -22 46 -16 26 3 57 6
70 6 18 0 28 12 48 56 14 31 26 62 26 68 0 18 -127 57 -138 42z"/>
<path d="M5273 6068 c-15 -19 -53 -105 -53 -120 0 -18 62 -46 85 -38 15 5 65
107 65 132 0 8 -19 17 -66 32 -12 4 -25 1 -31 -6z"/>
<path d="M5022 5857 c-43 -22 -44 -22 -37 -64 3 -23 2 -50 -4 -61 -13 -24 -2
-144 13 -139 17 6 105 218 106 255 0 39 -15 41 -78 9z"/>
<path d="M4967 5358 c-9 -5 -17 -13 -17 -19 0 -5 -9 -29 -21 -54 -11 -24 -18
-49 -14 -55 11 -17 66 -42 81 -36 17 6 66 114 62 135 -4 20 -70 41 -91 29z"/>
<path d="M4883 5167 c-24 -31 -48 -101 -40 -120 8 -21 77 -32 92 -15 19 21 53
114 46 125 -3 5 -15 12 -26 15 -11 3 -27 9 -36 12 -11 5 -23 -1 -36 -17z"/>
<path d="M4814 5003 c-15 -10 -74 -150 -67 -157 4 -3 28 -6 55 -6 l49 0 28 62
c29 62 29 98 -2 98 -7 0 -21 3 -32 5 -11 3 -25 2 -31 -2z"/>
</g>
</svg>
